<svg width="25" height="25" viewBox="0 0 25 25" fill="none" xmlns="http://www.w3.org/2000/svg">
<path d="M13.5514 4.35645C15.549 2.85698 18.3023 3.37742 19.7011 5.51888C21.0998 7.66035 20.6143 10.6119 18.6167 12.1114L17.6303 12.8518C17.267 13.1245 16.7664 13.0298 16.5121 12.6405C16.2578 12.2511 16.3461 11.7145 16.7093 11.4418L17.6957 10.7014C18.967 9.74718 19.2759 7.86892 18.3858 6.50617C17.4957 5.14342 15.7436 4.81223 14.4723 5.76644L11.8418 7.741C10.5706 8.69521 10.2616 10.5735 11.1517 11.9362C11.518 12.497 12.0303 12.8831 12.595 13.0768C12.9895 13.2122 13.3284 13.5493 13.3575 13.9923C13.3912 14.5044 13.0069 14.9455 12.5384 14.8392C11.482 14.5996 10.5047 13.9465 9.83646 12.9235C8.4377 10.782 8.92318 7.83049 10.9208 6.33102L13.5514 4.35645Z" fill="#212124"/>
<path d="M11.4486 20.6435C9.45099 22.143 6.69768 21.6226 5.29893 19.4811C3.90017 17.3397 4.38566 14.3881 6.38328 12.8886L7.36975 12.1482C7.73295 11.8755 8.23355 11.9702 8.48787 12.3595C8.74219 12.7489 8.65392 13.2855 8.29072 13.5582L7.30425 14.2986C6.03304 15.2528 5.72409 17.1311 6.61421 18.4938C7.50432 19.8566 9.25643 20.1878 10.5277 19.2336L13.1582 17.259C14.4294 16.3048 14.7384 14.4265 13.8483 13.0638C13.482 12.503 12.9697 12.1169 12.405 11.9232C12.0105 11.7878 11.6716 11.4507 11.6425 11.0077C11.6088 10.4956 11.9931 10.0545 12.4616 10.1608C13.518 10.4004 14.4953 11.0535 15.1635 12.0765C16.5623 14.218 16.0768 17.1695 14.0792 18.669L11.4486 20.6435Z" fill="#212124"/>
</svg>
