<svg width="18" height="15" viewBox="0 0 18 15" fill="none" xmlns="http://www.w3.org/2000/svg">
<path d="M16.3386 9.09602H14.5039V6.09238C14.5039 5.96356 14.47 5.83702 14.4056 5.72546C14.3412 5.61391 14.2486 5.52127 14.137 5.45686L9.58715 2.83042V2.35562L11.515 1.65773C11.5858 1.63202 11.647 1.58512 11.6903 1.52341C11.7335 1.4617 11.7567 1.38818 11.7567 1.31282C11.7567 1.23746 11.7335 1.16393 11.6903 1.10222C11.647 1.04051 11.5858 0.993619 11.515 0.96791L8.90467 0.0234467C8.84921 0.00339705 8.78974 -0.00299145 8.73129 0.00482276C8.67284 0.012637 8.61714 0.0344226 8.5689 0.0683358C8.52066 0.102249 8.4813 0.147291 8.45416 0.199644C8.42702 0.251997 8.4129 0.310122 8.41299 0.369091V2.83115L3.86313 5.4576C3.75157 5.522 3.65894 5.61464 3.59453 5.7262C3.53012 5.83775 3.49621 5.9643 3.49621 6.09311V9.12758H1.66158C1.46695 9.12758 1.2803 9.20489 1.14268 9.34252C1.00505 9.48014 0.927734 9.6668 0.927734 9.86142V14.2645C0.927734 14.4591 1.00505 14.6458 1.14268 14.7834C1.2803 14.921 1.46695 14.9984 1.66158 14.9984H3.86313V14.9675H16.3386C16.5332 14.9675 16.7198 14.8902 16.8575 14.7526C16.9951 14.615 17.0724 14.4283 17.0724 14.2337V9.8306C17.0725 9.73417 17.0536 9.63867 17.0168 9.54955C16.9799 9.46043 16.9259 9.37944 16.8577 9.31122C16.7896 9.24299 16.7086 9.18888 16.6196 9.15195C16.5305 9.11502 16.435 9.09602 16.3386 9.09602ZM9.00007 5.90378C9.19601 5.90378 9.38756 5.96188 9.55048 6.07074C9.71339 6.1796 9.84037 6.33432 9.91536 6.51535C9.99034 6.69637 10.01 6.89557 9.97174 7.08775C9.93351 7.27993 9.83915 7.45645 9.7006 7.595C9.56204 7.73355 9.38553 7.82791 9.19335 7.86613C9.00118 7.90436 8.80197 7.88474 8.62095 7.80976C8.43992 7.73477 8.2852 7.60779 8.17634 7.44487C8.06748 7.28195 8.00938 7.09041 8.00938 6.89447C8.00928 6.76435 8.03483 6.63548 8.08459 6.51524C8.13434 6.395 8.20732 6.28574 8.29933 6.19373C8.39135 6.10172 8.5006 6.02875 8.62084 5.97899C8.74108 5.92924 8.86994 5.90368 9.00007 5.90378ZM10.5294 13.3523C10.5294 13.3913 10.5139 13.4286 10.4864 13.4561C10.4589 13.4836 10.4216 13.4991 10.3826 13.4991H7.61678C7.57785 13.4991 7.54051 13.4836 7.51299 13.4561C7.48546 13.4286 7.47001 13.3913 7.47001 13.3523V12.132C7.47877 11.732 7.64378 11.3515 7.9297 11.0718C8.21562 10.792 8.59971 10.6354 8.99971 10.6354C9.39971 10.6354 9.7838 10.792 10.0697 11.0718C10.3556 11.3515 10.5207 11.732 10.5294 12.132V13.3523Z" fill="#212124"/>
</svg>
